<?xml version="1.0" encoding="UTF-8" standalone="no"?>
<!DOCTYPE svg PUBLIC "-//W3C//DTD SVG 1.1//EN" "http://www.w3.org/Graphics/SVG/1.1/DTD/svg11.dtd">
<svg width="100%" height="100%" viewBox="0 0 1665 526" version="1.1" xmlns="http://www.w3.org/2000/svg" xmlns:xlink="http://www.w3.org/1999/xlink" xml:space="preserve" xmlns:serif="http://www.serif.com/" style="fill-rule:evenodd;clip-rule:evenodd;stroke-linejoin:round;stroke-miterlimit:2;">
    <g transform="matrix(1,0,0,1,-228.024,-64.6674)">
        <path d="M326.652,522.798C307.216,522.798 290.15,518.709 275.455,510.532C260.759,502.355 249.263,491.096 240.968,476.756C232.672,462.416 228.524,446.002 228.524,427.514C228.524,409.026 232.494,392.672 240.434,378.45C248.375,364.229 259.278,353.03 273.144,344.852C287.009,336.675 302.594,332.586 319.896,332.586C337.436,332.586 353.021,336.556 366.649,344.497C380.278,352.437 391.004,363.577 398.825,377.917C406.647,392.257 410.558,408.789 410.558,427.514C410.558,428.699 410.499,429.944 410.38,431.247C410.262,432.551 410.203,433.914 410.203,435.336L247.723,435.336L247.723,416.493L396.692,416.493L386.737,423.959C386.737,410.449 383.834,398.42 378.027,387.872C372.22,377.324 364.338,369.088 354.383,363.162C344.428,357.237 332.933,354.274 319.896,354.274C307.097,354.274 295.602,357.237 285.41,363.162C275.217,369.088 267.277,377.384 261.589,388.05C255.9,398.716 253.056,410.923 253.056,424.67L253.056,428.581C253.056,442.802 256.196,455.305 262.477,466.09C268.759,476.874 277.528,485.289 288.787,491.333C300.046,497.377 312.904,500.399 327.363,500.399C338.74,500.399 349.347,498.384 359.183,494.355C369.02,490.326 377.493,484.163 384.604,475.867L398.825,492.222C390.53,502.177 380.16,509.762 367.716,514.976C355.272,520.191 341.584,522.798 326.652,522.798Z" style="fill:white;fill-rule:nonzero;stroke:white;stroke-width:1px;"/>
        <path d="M428.335,521.02L507.264,418.626L506.908,431.07L431.89,334.364L460.333,334.364L521.841,414.359L511.175,414.004L572.682,334.364L600.414,334.364L524.685,432.136L525.041,418.626L604.681,521.02L575.882,521.02L510.819,435.692L520.774,437.114L456.778,521.02L428.335,521.02Z" style="fill:white;fill-rule:nonzero;stroke:white;stroke-width:1px;"/>
        <path d="M742.984,522.798C726.867,522.798 712.29,519.065 699.253,511.599C686.217,504.132 675.847,493.348 668.144,479.245C660.441,465.142 656.589,447.898 656.589,427.514C656.589,407.13 660.381,389.887 667.966,375.784C675.551,361.681 685.861,350.956 698.898,343.608C711.934,336.26 726.63,332.586 742.984,332.586C760.761,332.586 776.701,336.556 790.804,344.497C804.907,352.437 815.988,363.577 824.046,377.917C832.105,392.257 836.135,408.789 836.135,427.514C836.135,446.476 832.105,463.068 824.046,477.289C815.988,491.511 804.907,502.651 790.804,510.71C776.701,518.768 760.761,522.798 742.984,522.798ZM646.634,589.994L646.634,334.364L670.81,334.364L670.81,390.539L668.322,427.87L671.877,465.557L671.877,589.994L646.634,589.994ZM741.206,500.399C754.48,500.399 766.331,497.377 776.76,491.333C787.189,485.289 795.485,476.756 801.648,465.734C807.81,454.713 810.892,441.973 810.892,427.514C810.892,413.056 807.81,400.375 801.648,389.472C795.485,378.569 787.189,370.036 776.76,363.873C766.331,357.711 754.48,354.629 741.206,354.629C727.933,354.629 716.023,357.711 705.475,363.873C694.928,370.036 686.632,378.569 680.588,389.472C674.544,400.375 671.521,413.056 671.521,427.514C671.521,441.973 674.544,454.713 680.588,465.734C686.632,476.756 694.928,485.289 705.475,491.333C716.023,497.377 727.933,500.399 741.206,500.399Z" style="fill:white;fill-rule:nonzero;stroke:white;stroke-width:1px;"/>
        <rect x="887.687" y="257.213" width="25.243" height="263.808" style="fill:white;stroke:white;stroke-width:1px;"/>
        <path d="M1059.41,522.798C1041.4,522.798 1025.22,518.709 1010.88,510.532C996.54,502.355 985.223,491.096 976.927,476.756C968.631,462.416 964.483,446.002 964.483,427.514C964.483,408.789 968.631,392.316 976.927,378.095C985.223,363.873 996.481,352.733 1010.7,344.674C1024.92,336.616 1041.16,332.586 1059.41,332.586C1077.9,332.586 1094.31,336.616 1108.65,344.674C1122.99,352.733 1134.25,363.873 1142.43,378.095C1150.61,392.316 1154.69,408.789 1154.69,427.514C1154.69,446.002 1150.61,462.416 1142.43,476.756C1134.25,491.096 1122.93,502.355 1108.48,510.532C1094.02,518.709 1077.66,522.798 1059.41,522.798ZM1059.41,500.399C1072.92,500.399 1084.89,497.377 1095.32,491.333C1105.75,485.289 1113.99,476.756 1120.03,465.734C1126.07,454.713 1129.1,441.973 1129.1,427.514C1129.1,412.819 1126.07,400.019 1120.03,389.116C1113.99,378.213 1105.75,369.74 1095.32,363.696C1084.89,357.651 1073.04,354.629 1059.77,354.629C1046.49,354.629 1034.64,357.651 1024.21,363.696C1013.78,369.74 1005.49,378.213 999.326,389.116C993.163,400.019 990.082,412.819 990.082,427.514C990.082,441.973 993.163,454.713 999.326,465.734C1005.49,476.756 1013.78,485.289 1024.21,491.333C1034.64,497.377 1046.38,500.399 1059.41,500.399Z" style="fill:white;fill-rule:nonzero;stroke:white;stroke-width:1px;"/>
        <path d="M1206.25,521.02L1206.25,334.364L1230.42,334.364L1230.42,385.206L1227.93,376.317C1233.15,362.096 1241.92,351.252 1254.25,343.786C1266.57,336.319 1281.86,332.586 1300.11,332.586L1300.11,357.118C1299.16,357.118 1298.21,357.059 1297.27,356.94C1296.32,356.822 1295.37,356.763 1294.42,356.763C1274.75,356.763 1259.34,362.747 1248.2,374.717C1237.06,386.687 1231.49,403.693 1231.49,425.737L1231.49,521.02L1206.25,521.02Z" style="fill:white;fill-rule:nonzero;stroke:white;stroke-width:1px;"/>
        <ellipse cx="1473.17" cy="324.388" rx="50.062" ry="44.929" style="fill:rgb(73,73,73);"/>
        <path d="M1416.34,295.103C1412.49,295.088 1396.3,314.125 1357.48,369.312C1356.53,370.528 1353.52,374.872 1352.57,376.272L1352.41,376.518C1351.23,377.312 1350.13,378.216 1349.13,379.218C1344.48,383.869 1344.48,391.421 1349.13,396.073C1353.78,400.724 1361.33,400.724 1365.98,396.073L1376.87,394.804L1411.59,394.244C1426.78,394.244 1441.98,395.491 1457.17,395.845C1464.03,396.004 1470.88,395.988 1477.73,395.627C1488.23,395.075 1499.66,392.427 1510.62,388.399C1521.37,384.443 1531.66,379.169 1540.1,373.414C1547.94,368.064 1554.99,360.877 1560.81,352.772C1566.49,344.877 1571,336.119 1574.03,327.468C1574.76,325.372 1577.56,318.992 1578.4,314.767C1579.31,310.194 1578.48,306.445 1577.36,304.202C1574.32,298.124 1569.8,292.438 1564.47,287.561C1559.42,282.944 1553.67,279.052 1547.95,276.194C1541.12,272.781 1534.43,269.556 1527.38,267.071C1522.38,265.307 1517.21,263.909 1511.72,263.042C1500.67,261.298 1488.06,261.818 1475.73,264.088C1463.64,266.314 1451.83,270.209 1442.1,275.074C1436.07,278.087 1430.67,281.873 1425.68,286.155C1422.41,288.954 1419.33,291.971 1416.34,295.103ZM1416.34,295.103C1413.09,298.503 1409.96,302.039 1406.84,305.578C1400,313.35 1393.31,321.303 1386.86,329.436C1380.37,337.621 1374.12,345.989 1368.19,354.544L1357.64,369.096L1357.48,369.312L1352.68,376.143C1355.74,372.217 1360.03,370.52 1364.94,371.319L1365.98,371.593C1369.74,371.058 1373.58,370.968 1376.87,370.968L1382.56,370.876C1397.38,343.348 1422.48,295.111 1416.34,295.103ZM1554.34,311.961C1552.7,309.501 1550.64,307.217 1548.37,305.145C1544.99,302.047 1541.13,299.432 1537.29,297.513C1531.37,294.55 1525.57,291.707 1519.46,289.55C1515.8,288.26 1512.02,287.221 1508.01,286.587C1499.42,285.231 1489.62,285.767 1480.05,287.53C1470.24,289.336 1460.65,292.449 1452.76,296.393C1448.51,298.52 1444.72,301.229 1441.19,304.251C1435.22,309.372 1429.98,315.371 1424.74,321.325C1418.17,328.794 1411.74,336.434 1405.54,344.25C1399.37,352.029 1393.42,359.981 1387.79,368.111L1385.82,370.823L1411.59,370.408C1426.97,370.408 1442.35,371.657 1457.72,372.015C1463.98,372.16 1470.23,372.153 1476.48,371.824C1484.75,371.388 1493.75,369.204 1502.39,366.028C1511.24,362.772 1519.72,358.457 1526.67,353.72C1532.29,349.885 1537.28,344.672 1541.45,338.862C1545.78,332.849 1549.22,326.183 1551.53,319.593C1551.91,318.505 1553.43,314.401 1554.34,311.961Z" style="fill:white;"/>
        <path d="M1423.9,306.709C1423.14,308.591 1421.92,311.728 1421.7,312.918C1421.14,316.001 1420.47,319.258 1420.1,322.504C1419.81,325.114 1419.71,327.719 1419.92,330.252C1420.85,341.434 1423.49,355.544 1430.17,365.615C1435.57,373.748 1443.37,379.528 1454.48,380.538C1461.12,381.142 1468.33,381.76 1475.33,381.277C1480.61,380.911 1485.78,379.928 1490.58,378.006C1506.37,371.69 1516.21,360.495 1522.28,347.057C1530.68,328.45 1531.46,305.254 1531.46,286.193C1531.46,281.493 1527.64,277.676 1522.94,277.676C1518.24,277.676 1514.42,281.493 1514.42,286.193C1514.42,303.039 1514.18,323.604 1506.76,340.05C1502.43,349.625 1495.51,357.691 1484.26,362.192C1481.08,363.462 1477.65,364.043 1474.15,364.284C1468.07,364.704 1461.8,364.1 1456.03,363.575C1449.06,362.942 1444.98,358.181 1442.29,352.484C1438.81,345.122 1437.5,336.153 1436.89,328.837L1438.46,315.965C1438.68,314.77 1440.39,311.408 1440.6,310.793C1443.16,303.418 1435.08,285.882 1424.81,304.278C1424.37,305.058 1424.07,305.877 1423.9,306.709ZM1439.47,312.907C1439.54,312.817 1439.61,312.71 1439.68,312.584L1439.47,312.907Z" style="fill:white;"/>
        <path d="M1492.74,285.838C1493.56,292.936 1493.04,300.219 1490.99,306.928C1488.97,313.551 1485.43,319.615 1480.13,324.254C1477.97,326.144 1475.89,328.088 1473.54,329.391C1472.22,330.121 1470.78,330.591 1469.05,330.343C1465.89,329.892 1465.49,326.041 1464.62,322.573C1463,316.195 1462.75,309.008 1462.34,304.684L1462.1,292.672L1462.33,292.386C1465.07,288.568 1464.19,283.242 1460.37,280.501C1455.72,277.161 1451.77,278.141 1448.46,281.583C1446.62,283.486 1445.14,289.403 1445.08,290.381L1445.38,306.299C1446.07,313.507 1446.85,327.225 1451.54,335.943C1454.85,342.089 1459.82,346.23 1466.64,347.205C1471.32,347.874 1475.4,347.155 1479.13,345.588C1483.56,343.724 1487.46,340.472 1491.35,337.072C1499.07,330.315 1504.33,321.554 1507.28,311.907C1510.07,302.769 1510.78,292.835 1509.58,283.179C1509.4,281.776 1508.53,279.605 1508.12,278.652C1507.46,274.61 1503.95,271.523 1499.73,271.523C1495.03,271.523 1491.21,275.339 1491.21,280.04C1491.21,281.797 1492.29,284.704 1492.74,285.838ZM1451.82,295.145L1451.84,295.153L1451.48,294.966L1451.82,295.145ZM1451.16,294.801L1450.44,294.339C1450.68,294.511 1450.92,294.665 1451.16,294.801Z" style="fill:white;"/>
        <path d="M1477.3,276.768C1474.43,276.755 1471.6,276.865 1468.93,277.439C1464.6,278.372 1460.6,280.311 1457.14,284.018C1457.02,284.149 1456.82,284.412 1456.57,284.782C1455.57,285.402 1454.72,286.023 1454.24,286.572C1452.5,288.554 1451.81,290.587 1451.8,292.504C1450.12,296.145 1449.58,300.301 1450.6,304.645C1451.12,306.832 1451.84,308.829 1452.74,310.715C1452.2,313.124 1451.62,316.609 1452.04,319.122C1452.47,321.632 1453.58,323.686 1455.11,325.218C1456.23,326.343 1457.87,327.421 1459.88,327.789C1459.93,329.38 1460.07,331.027 1460.36,331.973C1461.1,334.471 1462.55,335.983 1463.76,336.86C1466.63,338.944 1470.68,340.423 1475.26,335.846C1476.53,334.574 1477.68,333.049 1478.68,331.358C1480.65,331.43 1482.79,330.718 1484.89,328.63C1486.66,326.879 1490.83,321.919 1490.88,321.851C1493.45,318.775 1497.29,315.163 1499.84,311.293C1501.55,308.705 1502.77,305.989 1503.32,303.246C1503.52,302.242 1504.18,296.017 1503.43,293.624C1503.2,292.903 1502.91,292.258 1502.59,291.681C1503.46,289.46 1503.6,287.444 1503.01,285.651C1503.54,284.627 1503.82,283.578 1503.93,282.563C1504.18,280.254 1503.77,277.638 1501.27,275.136C1500.01,273.871 1498.05,272.657 1495.25,272.402C1492.28,272.131 1485.29,274.213 1484.6,274.428L1477.3,276.768Z" style="fill:white;"/>
        <path d="M1600.21,543.26L1600.94,496.696L1605.78,392.943C1606.47,365.312 1606.86,335.761 1603.79,307.004C1601.62,286.711 1597.73,266.806 1591.19,248.127C1588.49,240.415 1584.79,234.059 1580.39,228.354C1575.1,221.486 1568.69,215.71 1562.08,209.099C1541.68,188.699 1518.12,179.027 1493.58,177.414C1470.43,175.893 1446.23,181.764 1423.03,193.364C1412.67,198.544 1408.46,211.162 1413.64,221.523C1418.82,231.884 1431.44,236.09 1441.8,230.91C1457.96,222.83 1474.7,218.242 1490.83,219.302C1505.76,220.283 1519.99,226.373 1532.4,238.782C1536.95,243.341 1541.48,247.344 1545.39,251.846C1547.9,254.739 1550.13,257.879 1551.57,261.995C1557.06,277.682 1560.23,294.422 1562.05,311.466C1564.93,338.378 1564.46,366.036 1563.81,391.894L1558.99,495.249L1558.4,539.405C1557.34,550.94 1565.84,561.169 1577.38,562.233C1588.91,563.296 1599.14,554.795 1600.21,543.26Z" style="fill:white;"/>
        <path d="M1478.66,185.432L1465.88,187.05C1457.41,189.592 1448.6,193.576 1440.28,198.444C1432.11,203.227 1424.41,208.858 1417.97,214.715C1381.18,248.159 1359.78,293.056 1348.57,342.274C1332.74,411.775 1337.31,489.947 1345.36,554.353C1346.35,562.246 1353.56,567.853 1361.45,566.866C1369.34,565.88 1374.95,558.671 1373.96,550.777C1366.29,489.403 1361.59,414.906 1376.67,348.676C1386.55,305.313 1404.94,265.51 1437.36,236.044C1442.4,231.458 1448.44,227.067 1454.84,223.322C1461.12,219.643 1467.76,216.581 1474.16,214.66C1477.4,213.689 1481.76,214.095 1485.24,213.359C1487.6,212.862 1489.78,212.117 1491.72,211.133C1498.81,207.531 1501.64,198.849 1498.04,191.757C1494.44,184.664 1485.76,181.83 1478.66,185.432Z" style="fill:white;"/>
        <path d="M1399.04,243.074C1399.15,242.796 1399.58,241.845 1400.08,241.093C1401.86,238.403 1405.33,234.373 1408.71,230.93C1411.19,228.405 1413.63,226.195 1415.31,225.088C1415.76,224.787 1416.37,224.535 1416.51,224.477C1416.9,224.638 1417.36,224.516 1417.61,224.16C1417.89,223.75 1417.79,223.184 1417.38,222.897C1416.93,222.584 1416.01,222.566 1414.83,223.248C1412.27,224.734 1407.47,229.373 1403.54,233.816C1400.51,237.249 1398.01,240.577 1397.38,242.245C1396.95,243.404 1397.33,244.128 1397.89,244.407C1398.34,244.63 1398.88,244.449 1399.11,244.001C1399.26,243.692 1399.22,243.338 1399.04,243.074ZM1398.75,242.81C1398.73,242.801 1398.72,242.792 1398.7,242.784L1398.75,242.81Z" style="fill:white;"/>
        <path d="M1413.27,223.598C1413.31,223.646 1413.36,223.689 1413.41,223.728C1413.82,224.026 1414.39,223.94 1414.68,223.537C1414.87,223.29 1415.07,222.937 1415.26,222.573C1415.61,221.894 1415.91,221.178 1415.91,221.178C1416.07,220.79 1415.94,220.341 1415.6,220.094C1415.26,219.847 1414.8,219.866 1414.48,220.14C1414.48,220.14 1411.88,222.372 1409.37,224.647C1408.14,225.765 1406.92,226.893 1406.04,227.776C1403.52,230.301 1401.16,233.261 1399,236.41C1395.81,241.056 1393.02,246.115 1390.69,250.779C1390.47,251.226 1390.65,251.772 1391.1,251.996C1391.55,252.22 1392.09,252.038 1392.32,251.59C1394.61,246.997 1397.35,242.013 1400.5,237.437C1402.59,234.382 1404.87,231.508 1407.32,229.059C1408.19,228.193 1409.38,227.088 1410.59,225.992C1411.52,225.151 1412.46,224.316 1413.27,223.598Z" style="fill:white;"/>
        <path d="M1391.75,250.15C1392.54,248.154 1395.48,243.665 1395.5,243.628C1396.51,241.766 1408.06,228.258 1412.19,224.129L1412.31,224.009C1412.71,224.154 1413.17,224.005 1413.4,223.632C1413.72,223.111 1413.86,222.762 1413.9,222.586C1414.01,222.092 1413.8,221.801 1413.64,221.643C1413.45,221.451 1413.09,221.239 1412.56,221.459C1412.32,221.561 1411.72,222.037 1410.91,222.846C1406.69,227.059 1394.93,240.864 1393.9,242.764C1393.88,242.805 1390.34,248.304 1389.86,250.088C1389.64,250.915 1389.98,251.42 1390.27,251.607C1390.51,251.756 1390.92,251.89 1391.51,251.596C1391.96,251.372 1392.14,250.827 1391.92,250.379C1391.87,250.292 1391.82,250.216 1391.75,250.15ZM1390.75,249.952C1390.73,249.958 1390.71,249.965 1390.7,249.974L1390.75,249.952Z" style="fill:white;"/>
        <path d="M1413.1,221.598C1413.32,221.545 1413.52,221.411 1413.65,221.208C1414.18,220.387 1413.51,219.925 1413.28,219.82C1413.15,219.763 1412.86,219.655 1412.46,219.846C1412.32,219.917 1411.91,220.204 1411.36,220.662C1409.12,222.517 1403.79,227.388 1402.78,228.649C1400.16,231.918 1394.7,237.297 1391.41,242.452C1389.71,245.108 1388.6,247.723 1388.6,249.986C1388.6,250.487 1389.01,250.893 1389.51,250.893C1390.01,250.893 1390.41,250.487 1390.41,249.986C1390.41,248.008 1391.46,245.75 1392.94,243.429C1396.2,238.329 1401.61,233.016 1404.19,229.783C1405.17,228.561 1410.35,223.856 1412.52,222.059C1412.72,221.89 1412.95,221.711 1413.1,221.598ZM1412.03,220.409L1412.02,220.456L1412.04,220.394L1412.03,220.409ZM1412.08,220.314L1412.04,220.386L1412.08,220.314ZM1412.08,220.304L1412.12,220.227C1412.11,220.253 1412.09,220.278 1412.08,220.304Z" style="fill:white;"/>
        <path d="M1415.93,216.546C1410.68,219.594 1406.07,224.3 1401.98,229.657C1396.04,237.45 1391.21,246.622 1387.12,253.936C1385.55,256.731 1382.8,260.65 1381.18,264.303C1380.35,266.172 1379.81,267.981 1379.81,269.558C1379.81,270.058 1380.22,270.465 1380.72,270.465C1381.22,270.465 1381.63,270.058 1381.63,269.558C1381.63,267.783 1382.46,265.686 1383.55,263.556C1385.16,260.404 1387.37,257.203 1388.7,254.823C1392.76,247.574 1397.54,238.48 1403.42,230.757C1407.36,225.598 1411.79,221.05 1416.84,218.116C1417.28,217.864 1417.42,217.309 1417.17,216.876C1416.92,216.443 1416.37,216.295 1415.93,216.546Z" style="fill:white;"/>
        <path d="M1412.67,221.113C1412.81,221.524 1413.22,221.79 1413.67,221.723C1414.16,221.649 1414.5,221.187 1414.43,220.692C1414.27,219.612 1413.65,219.21 1412.76,219.249C1412.11,219.277 1411.11,219.74 1409.98,220.569C1406.21,223.304 1400.22,229.999 1399.25,230.971C1395.26,234.964 1391.73,240.087 1388.59,245.612C1384.03,253.654 1380.28,262.549 1377.09,269.999C1376.89,270.46 1377.11,270.993 1377.57,271.19C1378.03,271.388 1378.56,271.174 1378.76,270.714C1381.93,263.32 1385.64,254.489 1390.17,246.508C1393.22,241.131 1396.65,236.14 1400.53,232.254C1401.27,231.515 1404.94,227.425 1408.29,224.349C1409.75,223.003 1411.14,221.85 1412.18,221.309C1412.33,221.228 1412.53,221.158 1412.67,221.113Z" style="fill:white;"/>
        <path d="M1406.17,227.386L1405.97,227.639C1404.46,229.489 1400.21,234.533 1399.55,235.488C1396.26,240.217 1392.89,244.906 1389.68,249.704C1387.53,252.913 1385.46,256.17 1383.53,259.518C1382.63,261.08 1380.87,263.094 1380.28,264.843C1379.85,266.114 1379.95,267.275 1380.88,268.202C1381.23,268.556 1381.81,268.556 1382.16,268.202C1382.51,267.848 1382.51,267.273 1382.16,266.919C1381.58,266.339 1381.88,265.566 1382.29,264.742C1383.03,263.269 1384.37,261.696 1385.1,260.425C1387.01,257.111 1389.07,253.888 1391.19,250.712C1394.39,245.924 1397.75,241.244 1401.04,236.524C1401.69,235.583 1405.88,230.611 1407.37,228.786C1407.63,228.47 1407.81,228.242 1407.89,228.135C1408.69,227.046 1408.22,225.094 1406.35,227.099C1406.27,227.185 1406.21,227.283 1406.17,227.386Z" style="fill:white;"/>
        <path d="M1404.39,231.397C1404.37,231.455 1404.34,231.526 1404.31,231.581C1403.1,233.768 1397.75,238.439 1397.6,238.624C1394.7,242.13 1390.32,247.322 1387.21,252.68C1384.98,256.53 1383.41,260.474 1383.41,263.966C1383.41,264.467 1383.81,264.873 1384.31,264.873C1384.82,264.873 1385.22,264.467 1385.22,263.966C1385.22,260.75 1386.72,257.136 1388.78,253.59C1391.84,248.324 1396.15,243.226 1398.99,239.779C1399.13,239.613 1403.35,235.898 1405.2,233.485C1405.81,232.696 1406.17,231.993 1406.24,231.531C1406.32,230.97 1406.12,230.561 1405.76,230.284C1405.36,229.981 1404.79,230.058 1404.49,230.456C1404.28,230.735 1404.25,231.1 1404.39,231.397Z" style="fill:white;"/>
        <path d="M1400.58,235.086C1399.95,235.113 1399.13,235.48 1398.22,236.214C1396.66,237.456 1394.66,239.795 1392.55,242.63C1387.07,250.009 1380.83,260.764 1379.86,263.679C1379.7,264.154 1379.96,264.668 1380.43,264.826C1380.91,264.985 1381.42,264.728 1381.58,264.253C1382.41,261.758 1387.22,253.394 1392,246.514C1394.48,242.939 1396.95,239.765 1398.86,238.047C1399.6,237.383 1400.18,236.919 1400.66,236.898C1401.16,236.876 1401.55,236.452 1401.52,235.952C1401.5,235.452 1401.08,235.064 1400.58,235.086Z" style="fill:white;"/>
        <path d="M1384.02,262.072C1384.22,261.653 1384.68,260.821 1385.32,259.705C1388.34,254.41 1395.37,242.851 1399.09,238.414C1399.68,237.708 1400.43,237.066 1400.57,236.946C1400.98,236.921 1401.34,236.611 1401.41,236.184C1401.49,235.689 1401.15,235.224 1400.65,235.145C1400.41,235.106 1400.09,235.14 1399.73,235.33C1399.37,235.516 1398.9,235.912 1398.35,236.504C1396.08,238.948 1392.06,245.067 1388.61,250.658C1386.04,254.804 1383.79,258.656 1382.81,260.472C1382.49,261.047 1382.3,261.441 1382.24,261.604C1382.08,262.027 1382.22,262.307 1382.26,262.397C1382.4,262.669 1383,263.365 1383.76,262.61C1383.91,262.459 1383.99,262.269 1384.02,262.072ZM1382.91,261.086C1382.78,261.109 1382.63,261.175 1382.47,261.327C1382.6,261.202 1382.75,261.121 1382.91,261.086Z" style="fill:white;"/>
        <path d="M1417.53,219.163C1417.41,219.231 1417.29,219.317 1417.18,219.419C1416.97,219.621 1416.4,220.172 1415.59,220.967C1411.2,225.269 1399.61,236.721 1398,238.615L1392.8,244.615C1392.03,245.556 1390.05,247.802 1389.88,248.452C1389.76,248.927 1389.93,249.254 1390.13,249.458C1390.3,249.636 1390.72,249.92 1391.44,249.63C1391.7,249.526 1391.95,249.4 1392.19,249.259C1392.66,248.983 1393.1,248.648 1393.57,248.367C1394,248.11 1394.14,247.552 1393.88,247.123C1393.76,246.927 1393.58,246.791 1393.38,246.727C1393.7,246.354 1394,246.016 1394.2,245.771L1399.38,239.788C1400.98,237.907 1412.5,226.536 1416.86,222.263C1417.4,221.733 1417.83,221.313 1418.12,221.034C1418.16,221.006 1418.2,220.972 1418.24,220.935C1418.32,220.858 1418.39,220.784 1418.45,220.711L1418.52,220.637C1418.55,220.604 1418.58,220.571 1418.6,220.539L1418.63,220.506C1419.26,219.715 1419.14,219.223 1418.75,219.035C1418.53,218.786 1418.12,218.748 1417.53,219.163Z" style="fill:white;"/>
        <path d="M1400.6,235.362C1400.71,235.345 1400.84,235.315 1400.98,235.269C1402.6,234.73 1404.91,232.979 1407.21,230.845C1408.69,229.463 1410.17,227.925 1411.45,226.487C1411.58,226.436 1411.69,226.357 1411.78,226.252C1412.6,225.311 1413.04,224.714 1413.22,224.413C1413.8,223.697 1414.28,223.054 1414.63,222.529C1415.07,221.862 1414.77,221.406 1414.61,221.227C1414.45,221.049 1414.17,220.855 1413.72,220.917C1413.27,220.979 1411.56,222.012 1410.92,222.509C1409.73,223.433 1409.06,224.008 1408.51,224.527C1407.65,225.34 1407.1,226.016 1405.26,227.758C1403.15,229.752 1401.33,231.616 1399.68,233.622C1398.02,235.634 1396.53,237.789 1395.1,240.359C1394.86,240.796 1395.02,241.349 1395.46,241.592C1395.89,241.835 1396.45,241.677 1396.69,241.24C1397.92,239.022 1399.2,237.126 1400.6,235.362Z" style="fill:white;"/>
        <path d="M1410.7,224.36C1410.78,224.438 1410.88,224.501 1411,224.543C1411.47,224.713 1411.99,224.469 1412.16,223.998C1412.46,223.163 1412.24,222.666 1412.06,222.458C1411.81,222.168 1411.16,221.893 1410.29,222.425C1408.2,223.712 1401.86,230.72 1401.6,231.027C1398.17,235.077 1394.53,239.328 1391.3,243.795C1389.11,246.821 1387.11,249.946 1385.5,253.175C1385.28,253.623 1385.46,254.168 1385.9,254.392C1386.35,254.616 1386.9,254.434 1387.12,253.987C1388.69,250.844 1390.64,247.803 1392.77,244.857C1395.97,240.428 1399.58,236.214 1402.98,232.198C1403.21,231.929 1408.33,226.22 1410.7,224.36Z" style="fill:white;"/>
        <path d="M1402.86,230.823C1397.34,237.909 1389.34,245.079 1384.07,253.243C1381.69,256.931 1379.86,260.82 1379.03,264.986C1378.93,265.477 1379.25,265.955 1379.74,266.054C1380.23,266.152 1380.71,265.833 1380.81,265.342C1381.86,260.108 1384.58,255.345 1387.95,250.863C1393.03,244.111 1399.57,237.997 1404.29,231.939C1404.6,231.544 1404.53,230.974 1404.14,230.666C1403.74,230.358 1403.17,230.428 1402.86,230.823Z" style="fill:white;"/>
        <path d="M1399.41,239.288C1399.8,239.282 1400.16,239.014 1400.27,238.612C1400.51,237.707 1399.98,237.351 1399.74,237.25C1399.53,237.163 1399.19,237.101 1398.79,237.344C1398.26,237.668 1396.63,239.787 1395.98,240.649L1391.58,246.24C1388.54,250.213 1385.79,254.23 1383.21,258.358C1380.64,262.482 1378.25,266.717 1375.92,271.132C1375.69,271.575 1375.86,272.124 1376.3,272.358C1376.75,272.591 1377.29,272.42 1377.53,271.977C1379.83,267.602 1382.2,263.405 1384.75,259.318C1387.3,255.238 1390.02,251.269 1393.02,247.342L1397.42,241.748C1397.82,241.215 1398.87,239.936 1399.41,239.288ZM1398.51,238.199L1398.52,238.151C1398.51,238.168 1398.51,238.184 1398.51,238.199Z" style="fill:white;"/>
        <path d="M1396.3,236.979C1395.23,238.037 1394.26,239.15 1393.33,240.298C1392.8,240.95 1392.29,241.614 1391.79,242.285C1391.32,242.152 1390.83,242.411 1390.68,242.874L1390.03,244.493L1389.67,245.138C1388.9,246.183 1388.11,247.233 1387.28,248.274C1383.27,253.274 1380.56,258.174 1378.45,263.166C1376.8,267.065 1375.52,271.02 1374.28,275.124C1374.18,275.375 1374.09,275.624 1373.99,275.873C1373.9,276.127 1373.81,276.379 1373.72,276.629C1371.31,282.311 1369.01,288.087 1366.55,293.957C1364.79,298.141 1362.35,301.676 1361.04,305.657C1360.45,307.441 1360.08,309.311 1360.08,311.358C1360.08,311.858 1360.49,312.265 1360.99,312.265C1361.49,312.265 1361.9,311.858 1361.9,311.358C1361.9,308.872 1362.51,306.675 1363.38,304.566C1364.74,301.283 1366.73,298.206 1368.22,294.658C1368.61,293.729 1369,292.801 1369.38,291.877C1369.35,292.521 1369.52,292.709 1369.81,292.524C1370.19,292.659 1370.96,291.618 1371.95,288.796C1372.01,288.643 1372.07,288.486 1372.13,288.325C1372.4,287.585 1373.32,284.962 1373.59,283.871L1373.83,282.908C1374.5,280.71 1375.13,278.567 1375.76,276.463C1377.08,273.375 1378.44,270.317 1379.88,267.288C1382.65,261.431 1385.74,255.684 1389.45,250.05C1392.27,245.78 1393.16,244.173 1394.71,242.005C1395.45,240.977 1396.33,239.823 1397.65,238.194C1398.15,237.697 1398.68,237.213 1399.23,236.745C1399.5,236.513 1404.18,233.023 1405.66,231.392C1406.16,230.836 1406.34,230.33 1406.33,230.077C1406.32,229.787 1406.21,229.556 1406.03,229.373C1405.42,228.766 1404.28,228.796 1403.01,229.698C1400.71,231.331 1397.42,235.597 1397.23,235.834C1396.9,236.24 1396.59,236.621 1396.3,236.979Z" style="fill:white;"/>
        <path d="M1420.28,245.713C1421.35,242.774 1423.51,240.111 1426.08,237.707C1429.96,234.091 1434.79,231.07 1438.56,228.646C1448.03,222.561 1456.94,217.688 1466.32,214.569C1475.72,211.44 1485.59,210.08 1496.96,211.027C1503.53,211.574 1510.2,214.378 1516.69,215.51C1518.44,215.816 1520.18,216.003 1521.9,216.003C1522.4,216.003 1522.81,215.596 1522.81,215.096C1522.81,214.595 1522.4,214.189 1521.9,214.189C1520.28,214.189 1518.65,214.01 1517,213.723C1510.46,212.582 1503.73,209.771 1497.11,209.219C1485.48,208.249 1475.37,209.644 1465.75,212.847C1456.23,216.012 1447.18,220.946 1437.58,227.12C1433.73,229.595 1428.8,232.688 1424.85,236.381C1422.05,238.99 1419.74,241.901 1418.58,245.091C1418.4,245.561 1418.65,246.082 1419.12,246.254C1419.59,246.426 1420.11,246.184 1420.28,245.713Z" style="fill:white;"/>
        <path d="M1451.88,214.724C1451.63,214.58 1451.31,214.562 1451.03,214.702C1449.97,215.234 1449.34,215.596 1449.05,215.808C1448.75,216.027 1448.63,216.237 1448.58,216.351C1448.5,216.55 1448.48,216.728 1448.51,216.886L1447.52,217.534C1446.18,218.409 1442.97,220.704 1442.35,221.466C1441.65,222.331 1442.2,222.932 1442.66,223.113C1442.81,223.17 1443.14,223.241 1443.68,223.061C1444.07,222.932 1444.31,222.571 1444.31,222.186C1445.34,221.381 1447.59,219.656 1448.51,219.051C1449.38,218.484 1450.28,217.895 1451.21,217.3C1451.36,217.255 1451.52,217.206 1451.7,217.152C1456.71,215.587 1469.33,210.746 1469.67,210.608C1473.22,209.161 1474.81,208.521 1475.46,208.186C1476.46,207.673 1476.38,207.096 1476.33,206.851C1476.29,206.672 1476.2,206.473 1476.01,206.285C1475.91,206.184 1475.75,206.071 1475.51,206.011C1475.33,205.965 1474.96,205.949 1474.45,206C1472.45,206.205 1467.55,207.313 1466.96,207.47C1464.25,208.194 1461.47,209.372 1458.75,210.77C1456.39,211.977 1454.08,213.347 1451.88,214.724ZM1469.33,208.786C1468.38,208.995 1467.63,209.169 1467.43,209.223C1464.84,209.915 1462.18,211.047 1459.57,212.384L1459.02,212.675C1463.89,210.89 1468.78,209.013 1468.99,208.928L1469.33,208.786Z" style="fill:white;"/>
        <path d="M1443.59,222.493L1449.18,219.076C1449.95,218.625 1462.51,211.92 1466.55,209.868C1466.72,209.878 1466.89,209.839 1467.05,209.747C1474.13,205.62 1472.92,204.611 1465.84,208.195C1461.89,210.192 1449.05,217.053 1448.27,217.51L1441.84,221.436C1441.11,221.908 1439.4,223.253 1439.02,223.679C1438.67,224.076 1438.71,224.459 1438.74,224.591C1438.81,224.908 1439,225.149 1439.35,225.266C1439.45,225.299 1439.77,225.385 1440.25,225.143C1440.58,224.981 1440.89,224.801 1441.2,224.611C1441.87,224.2 1442.5,223.74 1443.17,223.324C1443.46,223.141 1443.61,222.816 1443.59,222.493Z" style="fill:white;"/>
        <path d="M1464.89,210.775C1458.84,214.064 1444.72,220.705 1443.61,221.445C1443.19,221.723 1443.08,222.287 1443.35,222.703C1443.63,223.12 1444.19,223.232 1444.61,222.955C1445.96,222.058 1466.28,212.525 1468.55,210.663C1469.3,210.056 1469.07,209.379 1468.91,209.156C1468.79,208.993 1468.5,208.694 1467.87,208.748C1467.49,208.78 1466.68,208.982 1465.36,209.419C1464.89,209.576 1464.63,210.089 1464.79,210.565C1464.81,210.641 1464.85,210.711 1464.89,210.775Z" style="fill:white;"/>
        <path d="M1469.03,209.699C1468.89,209.643 1468.61,209.566 1468.14,209.518C1467.8,209.483 1467.48,209.642 1467.3,209.905C1465.79,210.095 1463.33,210.339 1462.29,210.683C1461.6,210.915 1460.9,211.161 1460.21,211.421C1459.9,211.5 1459.59,211.581 1459.29,211.665C1452.71,213.454 1446.63,216.262 1442.05,220.848C1441.72,221.173 1441.69,221.453 1441.68,221.559C1441.66,221.955 1441.94,222.824 1442.97,222.481C1443.36,222.351 1444.75,221.537 1445.3,221.193L1449.18,218.723C1451.34,217.479 1453.58,216.291 1455.88,215.217C1457.48,214.467 1459.11,213.774 1460.75,213.155C1469.97,210.808 1480.08,210.382 1488.24,209.605C1493.13,209.14 1497.39,207.794 1501.73,207.68C1504.43,207.609 1507.17,208.034 1510.13,209.513C1510.58,209.737 1511.12,209.556 1511.34,209.108C1511.57,208.66 1511.39,208.115 1510.94,207.891C1507.68,206.26 1504.66,205.789 1501.68,205.867C1497.3,205.981 1493,207.329 1488.07,207.799C1482.35,208.344 1475.68,208.724 1469.03,209.699Z" style="fill:white;"/>
        <path d="M1414.36,184.402C1414.81,183.394 1414.95,182.239 1414.7,181.076C1412.37,170.104 1412.22,160.636 1409.27,151.369C1407.26,145.072 1404.06,138.857 1398.32,132.399C1395.22,128.91 1390.06,124.915 1384.55,122.733C1380.3,121.048 1375.85,120.455 1371.83,121.461C1370.17,121.874 1367.48,123.909 1366.53,128.099C1365.49,132.691 1365.56,140.905 1365.95,142.452C1367.32,147.955 1370.63,153.699 1374.9,159.084C1380.58,166.267 1387.94,172.855 1393.79,177.407C1395.49,178.728 1397.98,180.882 1400.23,183.236C1402.08,185.167 1403.86,187.162 1404.44,188.903C1405.39,191.753 1408.47,193.295 1411.32,192.345C1414.17,191.395 1415.71,188.311 1414.77,185.461C1414.65,185.117 1414.51,184.763 1414.36,184.402ZM1377.09,131.886C1376.78,134.565 1376.32,139.053 1376.51,139.812C1377.55,143.979 1380.2,148.249 1383.43,152.327C1388.55,158.799 1395.2,164.714 1400.47,168.815C1400.91,169.159 1401.4,169.55 1401.92,169.983C1401.2,164.675 1400.48,159.644 1398.9,154.677C1397.3,149.679 1394.74,144.757 1390.18,139.631C1388.34,137.559 1385.47,135.242 1382.29,133.64C1380.6,132.788 1378.82,132.084 1377.09,131.886Z" style="fill:white;"/>
        <path d="M1451.7,174.028C1452.24,173.323 1452.61,172.474 1452.75,171.534C1453.11,169.103 1453.23,166.518 1453.21,163.867C1453.16,158.554 1452.52,152.949 1452.52,147.982C1452.52,135.878 1452.51,122.747 1451.08,109.999C1450.09,101.164 1448.41,92.511 1445.63,84.474C1444.13,80.148 1440.21,73.912 1435.29,70.429C1430.96,67.361 1425.97,66.265 1420.97,68.482C1419.04,69.335 1417.38,70.676 1415.97,72.307C1414.46,74.047 1413.24,76.147 1412.13,77.951C1411.23,79.432 1410.45,80.92 1409.82,82.469C1409.16,84.118 1408.67,85.835 1408.38,87.685C1406.93,97.135 1408.52,105.57 1411.73,113.495C1418.32,129.804 1432.6,143.631 1437.31,160.894L1441.25,171.882C1441.25,174.886 1443.69,177.325 1446.7,177.325C1448.94,177.325 1450.87,175.967 1451.7,174.028ZM1441.63,143.408C1441.61,132.997 1441.47,121.964 1440.26,111.214C1439.36,103.193 1437.87,95.331 1435.34,88.035C1434.55,85.746 1432.68,82.607 1430.28,80.359C1428.81,78.995 1427.2,77.626 1425.38,78.434C1424.7,78.731 1424.24,79.343 1423.78,79.946C1422.87,81.137 1422.13,82.48 1421.41,83.643C1420.83,84.593 1420.32,85.543 1419.92,86.536C1419.56,87.423 1419.29,88.346 1419.14,89.341C1418.01,96.693 1419.32,103.247 1421.82,109.414C1426.61,121.275 1435.28,131.906 1441.63,143.408Z" style="fill:white;"/>
        <path d="M1481.48,167.752C1482.51,167.064 1483.31,166.022 1483.67,164.74C1484.74,161.033 1486.13,157.437 1487.66,153.889C1491.49,145.04 1496.17,136.479 1499.43,127.43C1502.42,119.132 1506.25,110.013 1508.63,100.795C1510.36,94.095 1511.33,87.339 1510.84,80.771C1510.57,77.14 1508.13,71.501 1504.47,68.144C1501.12,65.071 1496.96,63.771 1492.65,65.327C1490.86,65.973 1489.13,67.15 1487.58,68.707C1485.19,71.106 1483.17,74.518 1481.76,76.83C1479.16,81.088 1477.54,86.062 1476.55,91.281C1475.23,98.283 1475.05,105.737 1474.76,112.166L1472.88,137.292L1473.07,151.893C1472.78,155.719 1471.42,159.707 1470.89,163.578C1470.71,164.853 1470.61,166.118 1470.61,167.366C1470.61,170.37 1473.05,172.808 1476.05,172.808C1478.93,172.808 1481.28,170.576 1481.48,167.752ZM1483.88,136.222C1485.81,132.119 1487.66,127.987 1489.19,123.743C1492.07,115.743 1495.8,106.962 1498.09,98.075C1499.52,92.551 1500.38,86.99 1499.98,81.576C1499.9,80.498 1499.28,79.056 1498.43,77.766C1497.99,77.081 1497.47,76.434 1496.87,75.954C1496.68,75.804 1496.58,75.482 1496.34,75.566C1495.46,75.884 1494.82,76.844 1494.13,77.743C1492.89,79.361 1491.86,81.175 1491.05,82.506C1489.11,85.679 1487.98,89.413 1487.25,93.302C1486.02,99.79 1485.9,106.702 1485.63,112.661L1483.88,136.222Z" style="fill:white;"/>
        <path d="M1497.09,162.973C1495.41,164.933 1493.81,166.961 1492.35,169.073C1490.63,171.539 1491.24,174.934 1493.7,176.649C1496.17,178.364 1499.57,177.755 1501.28,175.289C1503.54,172.041 1506.14,169.03 1508.92,166.146C1515.8,159.007 1523.7,152.616 1530.53,145.615C1535.29,140.735 1541.62,135.154 1546.82,129.092C1550.78,124.485 1554.08,119.586 1555.88,114.54C1557.57,109.79 1557.8,102.408 1555.31,98.354C1552.97,94.552 1548.84,91.934 1541.62,94.825C1538.2,96.193 1534.81,98.61 1531.69,101.553C1527.66,105.354 1524.05,110.023 1521.33,113.857C1517,119.97 1513.33,126.339 1510.05,132.891C1505.24,142.507 1501.26,152.516 1497.2,162.662L1497.09,162.973ZM1546.18,104.761C1546.01,104.809 1545.82,104.867 1545.66,104.932C1543.4,105.836 1541.22,107.526 1539.15,109.473C1535.66,112.764 1532.56,116.829 1530.21,120.149C1526.21,125.805 1522.82,131.703 1519.78,137.765C1518.82,139.694 1517.89,141.64 1516.98,143.601C1518.95,141.767 1520.88,139.912 1522.74,138.013C1527.36,133.28 1533.52,127.885 1538.56,122.005C1541.6,118.462 1544.24,114.76 1545.63,110.879C1546.07,109.63 1546.37,108.019 1546.39,106.472C1546.39,105.968 1546.29,105.275 1546.18,104.761Z" style="fill:white;"/>
        <path d="M1647.5,188.683C1648.01,223.281 1643.53,257.973 1642.45,292.507C1642.17,301.594 1642.12,310.672 1642.42,319.734L1646.56,482.202L1651.2,535.805C1651.2,544.817 1658.51,552.133 1667.52,552.133C1676.54,552.133 1683.85,544.817 1683.85,535.805L1679.18,480.842L1675.05,318.646C1674.78,310.284 1674.83,301.908 1675.09,293.522C1676.18,258.49 1680.67,223.296 1680.15,188.198C1680.01,179.188 1672.59,171.981 1663.58,172.115C1654.57,172.249 1647.36,179.672 1647.5,188.683Z" style="fill:white;"/>
        <path d="M1630.23,169.023C1622.21,167.751 1614.32,172.64 1612.02,180.641C1609.54,189.304 1614.55,198.353 1623.21,200.838C1625.16,201.397 1628.54,201.867 1632.95,201.589C1642.46,200.988 1663.14,196.45 1669.59,196.45C1691.5,196.45 1720.76,199.964 1746.03,209.106C1761.83,214.82 1776.12,222.588 1785.05,233.748C1796.78,248.407 1801.58,262.725 1800.62,277.111C1799.6,292.601 1792.37,307.879 1781.74,323.412C1777.16,330.116 1772.41,336.902 1766.92,342.921C1762.25,348.033 1757.04,352.596 1750.69,355.767C1740.72,360.755 1725.33,364.515 1710.2,364.866C1697.29,365.165 1684.27,363.506 1676.48,355.724C1670.11,349.352 1659.77,349.352 1653.39,355.724C1647.02,362.096 1647.02,372.443 1653.39,378.815C1664.61,390.035 1681.36,395.97 1699.63,397.258C1723.32,398.928 1749.39,392.929 1765.3,384.975C1773.38,380.936 1780.4,375.607 1786.68,369.453C1795.06,361.244 1802.07,351.526 1808.69,341.852C1822.98,320.973 1831.83,300.092 1833.21,279.271C1834.65,257.505 1828.3,235.527 1810.55,213.349C1798.2,197.913 1778.98,186.301 1757.14,178.399C1728.19,167.926 1694.68,163.795 1669.59,163.795C1662.79,163.795 1640.93,168.365 1630.9,168.998L1630.23,169.023Z" style="fill:white;"/>
        <path d="M1662.74,374.266C1663.48,376.844 1666.48,382.101 1671.38,388.146C1680.48,399.367 1696.69,416.25 1700.75,421.448C1713.13,437.294 1726.3,452.609 1739.91,467.546C1760.14,489.732 1781.36,511.084 1802.4,532.125C1807.53,537.258 1815.86,537.258 1821,532.125C1826.13,526.992 1826.13,518.657 1821,513.524C1800.24,492.767 1779.31,471.71 1759.35,449.823C1746.19,435.38 1733.45,420.576 1721.48,405.253L1688.03,367.032C1686.03,360.053 1678.75,356.007 1671.77,358.003C1664.79,360 1660.74,367.287 1662.74,374.266Z" style="fill:white;"/>
        <path d="M1723.29,413.603C1723.28,406.644 1726.15,401.79 1730.5,398.223C1737.94,392.11 1749.14,389.398 1758.61,386.693C1761.01,386.006 1762.41,383.493 1761.72,381.086C1761.03,378.679 1758.52,377.284 1756.11,377.971C1745.5,381.004 1733.08,384.363 1724.74,391.214C1718.41,396.413 1714.2,403.478 1714.22,413.62C1714.23,416.123 1716.26,418.151 1718.77,418.147C1721.27,418.142 1723.3,416.106 1723.29,413.603Z" style="fill:white;"/>
        <path d="M1713.09,385.683C1712.3,385.767 1711.47,386.104 1710.61,386.82C1709.62,387.64 1708.74,388.801 1708.03,390.174C1707.04,392.05 1706.37,394.427 1705.76,395.913C1705.26,397.1 1704.29,400.086 1704.33,400.798C1704.42,402.965 1705.64,404.072 1706.71,404.66C1707.15,404.898 1707.86,405.255 1708.77,405.304C1709.12,405.984 1709.6,406.435 1709.94,406.734C1710.66,407.353 1711.58,407.838 1712.72,407.87C1714.25,408.755 1716.17,408.663 1717.61,407.633C1718.34,408.04 1719.01,408.078 1719.51,407.474C1721.37,405.248 1723.11,402.872 1724.79,400.434C1727.19,396.948 1729.46,393.334 1731.76,389.883C1733.52,387.253 1732.23,385.353 1732.1,385.104C1731.83,384.576 1728.58,381.041 1725.33,383.587C1724.61,383.358 1723.68,383.254 1722.5,383.642C1722.36,383.404 1722.18,383.174 1721.99,382.95C1720.44,381.136 1718.75,380.987 1717.33,381.255C1716.34,381.441 1715.22,381.959 1714.3,383.128C1713.89,383.638 1713.48,384.716 1713.09,385.683Z" style="fill:white;"/>
        <path d="M1713.58,396.118L1713.64,395.035C1714.22,394.829 1714.75,394.503 1715.22,394.058C1717.03,392.33 1717.1,389.456 1715.37,387.646C1713.03,385.198 1710.8,385.258 1709.21,385.75C1707.89,386.158 1706.59,387.115 1705.72,388.803C1704.24,391.647 1704.45,398.067 1705.26,399.675C1706.38,401.914 1709.11,402.823 1711.35,401.704C1713.42,400.666 1714.35,398.248 1713.58,396.118ZM1709.03,394.126L1708.81,393.91C1708.88,393.989 1708.96,394.061 1709.03,394.126Z" style="fill:white;"/>
        <path d="M1712.5,394.529C1714.26,394.181 1715.72,392.8 1716.07,390.932C1716.54,388.473 1714.92,386.096 1712.46,385.628C1709.75,385.111 1707.83,385.903 1706.37,387.194C1704.48,388.871 1703.6,392.384 1703.16,395.013C1702.75,397.483 1704.42,399.821 1706.89,400.233C1709.36,400.644 1711.7,398.974 1712.11,396.505C1712.19,396.017 1712.37,395.172 1712.5,394.529Z" style="fill:white;"/>
        <path d="M1669.93,385.868C1670.36,387.251 1671.1,388.597 1672.03,389.882C1673.42,391.781 1675.37,393.535 1676.58,395.25C1681.67,402.467 1688.69,409.368 1696.45,415.355C1704.12,421.277 1712.5,426.307 1720.38,429.889C1722.66,430.925 1725.35,429.916 1726.39,427.637C1727.42,425.358 1726.41,422.667 1724.14,421.632C1716.84,418.316 1709.09,413.655 1701.99,408.176C1694.98,402.76 1688.6,396.547 1683.99,390.019C1682.88,388.453 1681.22,386.841 1679.83,385.141C1679.32,384.508 1678.81,383.888 1678.6,383.193C1677.86,380.801 1675.32,379.458 1672.93,380.197C1670.54,380.935 1669.19,383.476 1669.93,385.868Z" style="fill:white;"/>
        <path d="M1673.64,390.882C1674.33,393.698 1675.78,396.412 1677.62,398.969C1679.87,402.102 1682.73,405.007 1685.04,407.646C1690.99,414.443 1697.2,421.189 1703.6,427.76C1710,434.328 1716.59,440.72 1723.29,446.814C1725.14,448.498 1728.02,448.361 1729.7,446.509C1731.38,444.657 1731.25,441.786 1729.39,440.102C1722.83,434.131 1716.37,427.866 1710.1,421.43C1703.81,414.975 1697.71,408.349 1691.87,401.673C1689.73,399.234 1687.06,396.569 1684.98,393.673C1683.85,392.096 1682.88,390.46 1682.45,388.723C1681.86,386.292 1679.4,384.802 1676.97,385.397C1674.54,385.993 1673.05,388.45 1673.64,390.882Z" style="fill:white;"/>
        <path d="M1666.74,177.897C1667.1,178.068 1667.49,178.199 1667.91,178.29C1670.35,178.821 1672.77,177.267 1673.3,174.821C1673.55,173.682 1673.34,172.549 1672.8,171.613L1672.8,171.085C1672.7,169.373 1672.57,167.217 1672.1,165.24C1671.67,163.423 1670.95,161.746 1669.92,160.42C1667.79,157.673 1664.78,157.27 1662.22,158.26C1659.93,159.144 1658.04,161.329 1657.71,164.02C1657.52,165.539 1657.44,167.099 1657.43,168.678C1657.4,171.908 1657.67,175.224 1657.67,178.367C1657.67,180.87 1659.7,182.902 1662.21,182.902C1664.71,182.902 1666.74,180.87 1666.74,178.367L1666.74,177.897Z" style="fill:white;"/>
        <path d="M1712.22,160.295C1712.96,161.902 1714.61,162.993 1716.49,162.929C1718.99,162.844 1720.95,160.743 1720.87,158.241C1720.32,142.291 1724.25,126.718 1725.38,110.905C1725.68,106.747 1725.8,102.573 1725.62,98.373C1725.43,94.236 1724.51,86.341 1721.33,81.491C1719.3,78.39 1716.47,76.338 1712.78,75.964C1711.1,75.794 1709.51,76.231 1708.06,77.158C1706.36,78.251 1704.87,80.279 1703.9,81.604C1702.02,84.178 1700.53,86.985 1699.43,89.942C1698.35,92.866 1697.65,95.936 1697.33,99.071C1696.69,105.524 1697.44,111.916 1698.95,118.263C1702.09,131.568 1708.71,144.661 1710.9,157.788C1711.06,158.782 1711.54,159.647 1712.22,160.295ZM1712.63,85.2C1712.21,85.707 1711.52,86.557 1711.22,86.968C1709.83,88.859 1708.74,90.923 1707.93,93.095C1707.12,95.298 1706.6,97.612 1706.36,99.974C1705.82,105.423 1706.51,110.816 1707.77,116.175C1709.2,122.227 1711.33,128.239 1713.44,134.231C1714.5,126.248 1715.76,118.282 1716.34,110.257C1716.61,106.445 1716.72,102.618 1716.55,98.767C1716.45,96.477 1716.14,92.656 1715.05,89.32C1714.48,87.616 1713.96,85.811 1712.63,85.2Z" style="fill:white;"/>
        <path d="M1739.41,164.447C1739.09,165.183 1738.78,165.925 1738.48,166.671C1737.55,168.995 1738.68,171.637 1741,172.569C1743.33,173.5 1745.97,172.369 1746.9,170.046C1749.39,163.837 1752.64,158.014 1756.25,152.375C1765.05,138.638 1775.91,125.956 1783.72,111.808C1785.6,108.393 1788.49,103.087 1790.08,97.872C1791.4,93.505 1791.76,89.173 1790.6,85.682C1789.91,83.607 1788.27,81.995 1785.93,81.108C1782.93,79.967 1778.56,80.242 1776.52,80.961C1773.02,82.198 1770.1,84.365 1767.56,87.017C1764.38,90.336 1761.84,94.459 1759.23,97.93C1758.22,99.282 1757.33,100.772 1756.53,102.338C1754.94,105.46 1753.72,108.908 1752.37,111.965C1749.51,118.385 1747.36,125.132 1745.6,132.016C1743.04,142.011 1741.29,152.298 1739.3,162.248C1739.15,163.005 1739.2,163.756 1739.41,164.447ZM1782.22,89.536C1781.44,89.453 1780.04,89.339 1779.54,89.515C1777.4,90.271 1775.66,91.668 1774.11,93.29C1771.19,96.346 1768.89,100.177 1766.49,103.372C1765.53,104.651 1764.75,106.114 1764.04,107.632C1762.8,110.29 1761.78,113.111 1760.65,115.649C1758.01,121.609 1756.02,127.877 1754.38,134.269C1753.78,136.623 1753.22,138.993 1752.7,141.371C1760.5,130.083 1769.23,119.283 1775.78,107.426C1777.43,104.433 1780.01,99.805 1781.4,95.235C1782.01,93.23 1782.46,91.252 1782.22,89.536Z" style="fill:white;"/>
        <path d="M1773.91,166.03C1773.21,166.904 1772.66,167.541 1772.4,167.875C1769.87,171.206 1772.28,173.986 1772.78,174.466C1773.11,174.776 1774.63,176.199 1776.91,175.727C1779.2,175.926 1781.36,174.439 1781.93,172.142C1782.04,171.715 1782.17,171.267 1782.32,170.802L1785.54,166.898L1791.87,159.407L1799.09,150.174C1804.56,143.098 1810.65,135.737 1815.67,127.854C1819.2,122.304 1822.2,116.497 1824.15,110.369C1825.06,107.5 1826.71,102.447 1826.06,98.746C1825.55,95.839 1824.03,93.462 1821.07,92.071C1815.33,89.377 1810.5,90.834 1806.53,94.269C1802.23,97.985 1799.12,104.599 1797.27,108.72C1795.49,112.664 1793.87,116.622 1792.34,120.59C1788.8,129.72 1785.7,138.9 1782.04,148.066C1780.46,152.011 1777.5,157.591 1775.32,162.586C1774.8,163.77 1774.33,164.926 1773.91,166.03ZM1816.67,100.548C1814.51,99.745 1812.87,101.139 1811.49,102.765C1808.95,105.758 1807.17,109.917 1805.95,112.628C1804.25,116.416 1802.69,120.218 1801.22,124.028C1799.27,129.07 1797.45,134.126 1795.59,139.187C1799.73,133.926 1803.98,128.48 1807.63,122.741C1810.72,117.893 1813.37,112.835 1815.07,107.481C1815.46,106.25 1816.12,104.489 1816.49,102.691C1816.63,102.041 1816.66,101.006 1816.67,100.548Z" style="fill:white;"/>
        <path d="M1795.58,180.211C1794.31,180.553 1793.11,180.99 1792.03,181.552C1789.7,182.764 1788.79,185.642 1790,187.974C1791.22,190.306 1794.09,191.215 1796.42,190.003L1806.76,187.455C1814.5,184.874 1822.32,182.254 1830.03,179.42C1835.23,177.511 1840.38,175.506 1845.44,173.352C1853.25,170.025 1861.47,166.252 1869.14,161.746C1874.41,158.651 1879.43,155.209 1883.89,151.34L1888.92,146.244C1894.93,139.041 1893.21,134.3 1890.43,131.788C1888.62,130.156 1885.38,129.083 1881.47,128.945C1875.97,128.751 1868.92,130.093 1865.51,131.098L1853.08,135.618C1846.21,138.7 1840.01,142.978 1834.15,147.793C1825.88,154.599 1818.32,162.495 1810.39,169.294C1807.1,172.117 1803.07,174.458 1799.46,177.089C1798.1,178.084 1796.79,179.116 1795.58,180.211ZM1882.67,138.657C1882.09,138.557 1881.43,138.469 1880.88,138.456C1876.46,138.35 1870.91,139.436 1868.19,140.235L1856.98,144.309C1850.88,147.044 1845.4,150.876 1840.2,155.148C1833.57,160.607 1827.4,166.776 1821.12,172.505C1823,171.841 1824.88,171.167 1826.75,170.48C1831.8,168.627 1836.8,166.681 1841.71,164.59C1849.16,161.416 1857.01,157.831 1864.32,153.534C1869.08,150.737 1873.62,147.639 1877.65,144.143L1881.61,140.147C1882,139.67 1882.37,139.134 1882.67,138.657Z" style="fill:white;"/>
        <path d="M1752.02,223.344C1772.34,231.446 1778.31,264.454 1765.33,297.009C1752.35,329.564 1725.32,349.417 1704.99,341.316C1684.67,333.214 1678.71,300.206 1691.68,267.651C1704.66,235.096 1731.7,215.243 1752.02,223.344Z" style="fill:rgb(73,73,73);"/>
        <path d="M1754.16,217.964C1742.94,213.49 1729.91,215.915 1717.74,224.122C1705.27,232.532 1693.64,247.088 1686.3,265.506C1678.96,283.924 1677.39,302.49 1680.65,317.17C1683.84,331.496 1691.63,342.223 1702.85,346.696C1714.07,351.17 1727.11,348.745 1739.27,340.538C1751.74,332.129 1763.37,317.572 1770.71,299.154C1778.05,280.736 1779.63,262.17 1776.36,247.49C1773.18,233.164 1765.39,222.437 1754.16,217.964ZM1749.88,228.725C1757.82,231.891 1762.8,239.867 1765.05,250.004C1767.89,262.757 1766.33,278.864 1759.95,294.864C1753.57,310.864 1743.62,323.628 1732.79,330.933C1724.18,336.74 1715.08,339.1 1707.14,335.935C1699.2,332.769 1694.21,324.793 1691.96,314.656C1689.12,301.903 1690.69,285.796 1697.06,269.796C1703.44,253.796 1713.39,241.032 1724.22,233.727C1732.83,227.92 1741.93,225.56 1749.88,228.725Z" style="fill:white;"/>
        <path d="M1732.43,252.319C1731.44,251.851 1730.17,251.596 1728.57,251.848C1726.94,252.103 1725.54,252.917 1724.53,254.064C1724.06,254.5 1721.68,256.761 1721.11,257.455L1715.81,266.044L1712.83,272.765C1710.96,278.085 1707.15,288.292 1708.1,295.767C1708.79,301.214 1711.41,305.613 1716.76,308.042C1719.82,309.434 1722.92,309.422 1725.88,308.402C1730.26,306.898 1734.38,302.566 1736.54,299.322C1739.91,294.263 1743.32,288.093 1745.84,281.775C1747.62,277.287 1748.95,272.719 1749.57,268.397C1749.91,266.06 1750.42,262.559 1749.91,259.704C1749.48,257.287 1748.45,255.187 1746.84,253.577C1744.01,250.749 1740.23,249.928 1736.3,250.834C1734.99,251.136 1733.67,251.661 1732.43,252.319Z" style="fill:white;"/>
        <path d="M1747.54,287.232C1749.44,281.984 1750.77,276.453 1752.04,271.35C1753.06,267.113 1754.23,260.821 1753.21,255.644C1752.4,251.533 1750.27,248.099 1746.07,246.388C1742.08,244.765 1737.93,245.224 1734.03,246.871C1728.77,249.091 1723.98,253.535 1720.84,257.263C1716.14,262.861 1712,269.391 1708.82,276.336C1705.62,283.348 1703.41,290.785 1702.57,298.11C1702.03,302.911 1702.87,310.427 1706,315.291C1708.52,319.203 1712.37,321.587 1717.88,320.5C1720.15,320.036 1722.25,319.121 1724.23,317.953C1726.89,316.383 1729.34,314.348 1731.75,312.524C1733.43,311.245 1734.85,309.83 1736.12,308.314C1737.92,306.171 1739.43,303.831 1741.1,301.456C1742.83,298.989 1744.3,296.202 1745.47,293.245C1746.24,291.278 1746.94,289.256 1747.54,287.232ZM1745.72,279.998C1746.53,276.741 1747.2,273.482 1747.86,270.384C1748.69,266.642 1749.73,261.097 1748.76,256.555C1748.22,253.988 1746.98,251.761 1744.34,250.726C1741.53,249.62 1738.63,250.093 1735.91,251.274C1731.38,253.24 1727.31,257.171 1724.63,260.42C1720.25,265.717 1716.41,271.889 1713.47,278.439C1710.54,284.97 1708.51,291.881 1707.77,298.688C1707.35,302.519 1707.95,308.533 1710.47,312.398C1711.83,314.488 1713.87,315.823 1716.83,315.223C1718.51,314.893 1720.06,314.205 1721.54,313.352C1722.85,312.594 1724.11,311.711 1725.33,310.8C1724.94,311.033 1724.56,311.251 1724.16,311.436C1723.28,311.851 1722.37,312.133 1721.42,312.151C1720.82,312.176 1720.32,311.711 1720.29,311.113C1720.27,310.516 1720.73,310.01 1721.33,309.985C1721.97,309.943 1722.56,309.702 1723.14,309.396C1724.8,308.519 1726.34,307.092 1727.96,306.398C1730.24,305.427 1732.21,304.178 1733.94,302.714C1734.96,301.352 1735.93,299.935 1736.97,298.507C1738.14,296.894 1739.13,295.094 1740.05,293.227C1741.59,290.125 1742.82,286.778 1744.12,283.591C1744.63,282.348 1745.19,281.166 1745.72,279.998Z" style="fill:white;"/>
        <path d="M1742.79,252.297C1742.9,252.315 1743.15,252.313 1743.01,252.351C1742.78,252.413 1743.3,252.56 1743.12,252.667C1743,252.742 1742.82,252.938 1742.64,253.128C1743.51,253.258 1745.18,254.492 1745.74,254.643C1746.31,254.869 1746.95,254.594 1747.17,254.029C1747.4,253.465 1747.13,252.823 1746.56,252.597C1745.8,252.181 1744,250.61 1742.86,250.303C1742.37,250.169 1741.92,250.196 1741.61,250.311C1741.35,250.405 1741.1,250.484 1740.93,250.658C1740.83,250.757 1740.71,250.832 1740.63,250.953C1740.58,251.043 1740.5,251.118 1740.45,251.221C1740.42,251.293 1740.34,251.356 1740.36,251.434C1740.5,251.993 1739.97,251.817 1740.63,252.142C1740.6,252.739 1741.06,253.249 1741.66,253.281C1742.24,253.312 1742.74,252.874 1742.79,252.297ZM1742.64,253.128C1742.33,253.459 1742.05,253.771 1742.13,253.393C1742.18,253.152 1742.37,253.086 1742.64,253.128Z" style="fill:white;"/>
        <path d="M1741.87,252.249C1742.61,252.997 1743.78,254.615 1744.69,255.167C1745.66,255.761 1746.49,255.859 1746.79,255.778C1747.54,255.778 1748.15,255.165 1748.15,254.411C1748.15,253.679 1747.58,253.081 1746.85,253.048C1746.94,253.04 1747.07,252.998 1747.15,252.981C1747.13,252.903 1747.13,252.734 1747.05,252.651C1746.85,252.445 1746.53,252.265 1746.21,252.047C1744.7,251.042 1742.64,249.828 1741.92,249.695C1740.88,249.506 1740.35,249.888 1740.23,250.495C1740.18,250.721 1740.06,251.154 1740.41,251.715C1740.65,252.262 1741.29,252.509 1741.84,252.266L1741.87,252.249ZM1747.15,252.981C1747.22,252.962 1747.25,252.962 1747.19,253.012C1747.16,253.035 1747.15,253.018 1747.15,252.981ZM1741.57,251.976C1741.39,251.842 1741.26,251.816 1741.2,251.951C1741.11,252.147 1741.34,252.079 1741.57,251.976Z" style="fill:white;"/>
        <path d="M1743.56,253.111C1743.81,253.403 1744.07,253.809 1744.41,254.207C1744.98,254.862 1745.59,255.617 1746.17,256.084C1746.48,256.326 1746.89,256.407 1747.1,256.485C1747.08,256.687 1747.1,256.808 1747.23,256.621C1747.27,256.562 1747.21,256.523 1747.1,256.485L1747.11,256.408L1747.15,256.159C1747.16,256.738 1747.63,257.206 1748.21,257.206C1748.46,257.332 1749.4,256.748 1749.01,255.035C1748.96,254.79 1748.92,254.524 1748.73,254.187C1748.3,253.414 1747.39,252.54 1746.56,251.854C1745.46,250.956 1744.37,250.446 1743.9,250.445C1743.12,250.442 1742.58,250.604 1742.44,251.23C1742.39,251.456 1742.23,251.801 1742.44,252.272C1742.56,252.797 1743.04,253.145 1743.56,253.111ZM1748.09,255.104C1747.63,255.136 1747.31,255.366 1747.24,255.74C1747.38,255.398 1747.7,255.148 1748.09,255.104Z" style="fill:white;"/>
        <path d="M1744.16,251.313C1744.1,251.244 1744.04,251.183 1743.96,251.129C1743.7,250.824 1741.79,251.716 1742.83,253.249C1743.04,253.552 1743.31,253.99 1743.7,254.418C1744.44,255.224 1745.51,255.989 1745.91,256.583C1746.24,257.152 1746.96,257.351 1747.53,257.025C1748.1,256.7 1748.3,255.973 1747.98,255.404C1747.6,254.62 1746.72,253.29 1745.75,252.386C1745.32,251.974 1744.86,251.701 1744.54,251.496C1744.4,251.411 1744.28,251.351 1744.16,251.313Z" style="fill:white;"/>
        <path d="M1745.31,252.82L1745.37,252.939C1745.79,253.726 1746.74,255.699 1746.92,256.334C1747.11,256.96 1747.77,257.316 1748.39,257.128C1749.02,256.94 1749.37,256.279 1749.19,255.653C1748.95,254.943 1747.79,252.744 1747.28,251.873C1746.31,250.231 1744.87,251.826 1745.08,252.428C1745.13,252.578 1745.21,252.711 1745.31,252.82Z" style="fill:white;"/>
        <path d="M1747.61,254.782C1747.3,255.053 1747.07,255.477 1746.95,255.995C1746.81,256.612 1746.85,257.41 1746.82,257.785C1746.76,258.378 1747.19,258.908 1747.79,258.968C1748.38,259.027 1748.91,258.593 1748.97,258L1749.03,256.421C1749.48,256.029 1749.53,255.344 1749.14,254.892C1748.75,254.44 1748.06,254.391 1747.61,254.782Z" style="fill:white;"/>
        <path d="M1706.13,295.45C1705.77,296.386 1705.48,297.345 1705.31,298.326C1705.22,298.757 1705.05,301.063 1705.07,301.973C1705.09,302.641 1705.37,303.034 1705.47,303.157C1705.89,303.687 1706.36,303.876 1706.88,303.7L1706.88,305.488L1706.6,306.762C1706.52,307.112 1706.35,307.979 1706.35,308.207C1706.33,309.316 1707.13,309.69 1707.42,309.793L1707.54,309.83C1707.53,310.051 1707.54,310.26 1707.58,310.433C1707.67,310.845 1707.85,311.172 1708.09,311.416C1708.12,311.659 1708.18,311.872 1708.27,312.047C1708.56,312.623 1708.93,312.954 1709.37,313.066C1709.1,313.721 1708.81,314.444 1708.85,314.979C1708.9,315.594 1709.16,316.117 1709.71,316.51C1710.53,317.09 1711.31,317.03 1712.05,316.528C1712.14,316.467 1712.24,316.389 1712.33,316.298L1712.35,316.311L1712.38,316.324C1712.36,316.467 1712.34,316.605 1712.32,316.739C1712.17,318.179 1713.02,318.548 1713.79,318.622C1714.05,318.647 1714.43,318.62 1714.85,318.391C1715.29,318.154 1716.08,317.398 1716.43,317.027L1716.78,316.599C1716.87,316.627 1716.96,316.646 1717.06,316.655C1717.85,317.75 1718.78,317.825 1719.81,317.166C1720.29,316.852 1720.95,315.824 1721.36,315.33C1721.67,314.954 1721.99,314.562 1722.3,314.153C1722.64,314.263 1723.02,314.229 1723.44,314.074C1723.99,313.872 1724.83,312.987 1725.33,312.566L1726.99,311.039C1727.64,310.376 1728.28,309.702 1728.91,309.019C1729.48,309.587 1730.4,309.626 1731.02,309.107L1732.23,308.162L1734.44,305.634C1735.66,304.169 1736.86,302.578 1737.97,300.919C1739.08,299.247 1740.1,297.508 1740.92,295.759C1741.12,295.344 1742.03,293.174 1742.4,291.287C1742.56,290.482 1742.58,289.758 1742.59,289.246C1742.62,288.426 1742.51,287.912 1742.38,287.779C1741.95,287.317 1741.49,286.899 1740.86,287.429C1740.46,287.658 1740.26,288.102 1740.33,288.53C1740.3,288.587 1740.26,288.682 1740.23,288.76C1740.06,289.185 1739.72,289.732 1739.44,290.413C1738.81,292.011 1738.27,294.026 1738.09,294.394C1737.42,295.749 1736.64,297.095 1735.77,298.401C1735.68,298.441 1735.57,298.51 1735.46,298.628C1734.31,299.589 1733.16,300.549 1732.1,301.628C1730.08,303.671 1728.26,305.924 1726.27,308.008L1726.29,307.974C1726.77,307.169 1727.03,306.415 1727.03,305.836C1727.04,305.439 1726.96,305.144 1726.84,304.925C1726.77,304.07 1726.15,303.679 1725.54,303.489C1725.24,303.397 1724.79,303.35 1724.26,303.522C1723.95,303.619 1723.54,303.843 1723.11,304.111C1722.36,304.241 1721.54,304.589 1720.69,305.103C1720.33,305.078 1719.9,305.136 1719.45,305.268C1718.92,304.757 1718.23,304.582 1717.45,304.755C1717.37,304.689 1717.27,304.632 1717.17,304.583C1717.05,303.756 1716.68,303.124 1716.15,302.742C1715.97,302.617 1715.79,302.517 1715.6,302.442C1715.67,301.913 1715.71,301.238 1715.56,300.722C1715.46,300.357 1715.28,300.037 1715.04,299.779C1714.9,298.796 1714.52,298.014 1713.93,297.543C1712.99,296.783 1712.08,296.822 1711.24,297.24C1710.89,297.419 1710.55,297.731 1710.24,298.094C1710.34,296.815 1710.54,295.519 1710.86,294.264C1711.24,292.759 1711.79,291.307 1712.64,290.039L1713.05,289.51C1713.28,289.288 1713.79,288.683 1713.91,288.504C1714.05,288.314 1714.1,288.16 1714.12,288.092C1714.54,286.936 1713.74,286.403 1713.31,286.194C1713.22,286.149 1712.4,285.694 1711.52,286.546C1711.36,286.697 1711.21,286.852 1711.06,287.011C1711.12,286.756 1711.19,286.503 1711.27,286.252C1711.84,284.311 1712.69,282.485 1714.16,280.968C1714.76,280.371 1714.76,279.401 1714.16,278.804C1713.57,278.207 1712.6,278.207 1712,278.804C1710.1,280.648 1708.94,282.881 1708.16,285.288C1707.09,288.552 1706.77,292.156 1706.13,295.45ZM1740.62,289.115C1740.78,289.37 1741.01,289.473 1741.33,289.448C1741.06,289.43 1740.81,289.314 1740.62,289.115Z" style="fill:white;"/>
        <path d="M1757.11,235.112C1757.36,232.773 1755.83,237.942 1755.48,238.635C1754.04,241.52 1752.74,244.401 1751.3,247.27C1751.11,247.658 1748.96,251.613 1749.07,251.727C1750.18,252.836 1756.35,251.062 1757.71,250.892C1758.36,250.81 1766.14,251.572 1766.34,251.17C1766.89,250.068 1765.28,248.434 1764.95,247.549C1763.69,244.196 1760.73,238.197 1757.71,236.685C1756.47,236.068 1759.52,238.773 1760.49,239.749C1762.1,241.358 1762.85,243.757 1763.56,245.877C1763.87,246.797 1764.39,248.663 1764.39,248.663C1764.39,248.663 1762.46,242.887 1759.94,242.256C1758.01,241.775 1753.61,244.252 1752.97,246.156C1752.67,247.063 1754.7,245.311 1755.48,244.763C1756.7,243.91 1759.2,242.341 1759.94,240.863C1760.36,240.008 1758.14,241.617 1757.43,242.256C1756.31,243.264 1753.81,245.584 1753.81,247.27C1753.81,248.31 1759.98,244.562 1759.38,243.37C1758.46,241.53 1752.13,249.496 1753.25,249.777C1755.25,250.277 1759.42,246.098 1760.49,244.485C1760.94,243.82 1759.18,245.398 1758.54,245.877C1758.3,246.059 1754.69,248.428 1754.92,248.663C1755.43,249.171 1758.58,247.446 1759.1,247.27C1764.67,245.415 1756.59,236.181 1756.59,242.535" style="fill:white;"/>
        <path d="M1755.29,235.601C1755.23,235.712 1755.18,235.83 1755.15,235.956C1754.78,236.848 1754.42,237.773 1754.28,238.033L1749.65,246.446C1749.48,246.754 1747.91,249.324 1747.35,250.397C1746.57,251.893 1747.46,253.076 1747.59,253.213C1748.12,253.803 1749.27,254.257 1750.82,254.279C1753.16,254.312 1756.96,253.354 1758,253.251C1758.52,253.196 1763.52,253.788 1765.53,253.799C1767.5,253.81 1768.44,252.606 1768.6,252.3C1768.98,251.578 1769.08,250.777 1768.93,249.935C1768.73,248.798 1767.61,247.451 1767.31,246.663C1766.49,244.603 1765.05,241.606 1763.33,239.148C1761.91,237.105 1760.28,235.43 1758.71,234.685C1758.53,234.597 1758.36,234.53 1758.2,234.485C1758.12,233.911 1757.81,233.649 1757.72,233.583C1757.5,233.421 1756.43,233.226 1755.84,234.356C1755.69,234.643 1755.5,235.101 1755.29,235.601ZM1750.67,250.514C1750.63,250.373 1750.59,250.273 1750.56,250.242C1750.46,250.152 1750.21,249.716 1750.18,249.922C1750.15,250.276 1750.34,250.457 1750.67,250.514ZM1761.65,247.945C1761.35,248.208 1760.98,248.441 1760.55,248.634L1760.84,248.647L1761.93,248.696L1761.81,248.359L1761.65,247.945Z" style="fill:white;"/>
        <path d="M1510.3,285.336C1508.44,287.91 1506.19,290.768 1503.91,293.235C1502.77,294.471 1500.34,296.803 1500.34,296.803C1500.34,296.803 1503.43,296.623 1504.96,296.803C1508.15,297.178 1511.66,297.558 1514.62,298.902C1516.07,299.563 1519.02,300.791 1519.02,300.791C1519.02,300.791 1518.81,298.694 1518.81,297.642C1518.81,294.84 1518.86,290.602 1517.55,287.988C1516.66,286.206 1511.61,286.424 1510.21,287.358C1509.52,287.816 1509.07,288.424 1508.53,289.037C1506.83,290.98 1509.2,290.381 1511.47,289.247C1512.41,288.778 1509.8,290.526 1508.95,291.136C1507.42,292.228 1505.45,293.165 1504.12,294.494C1503.86,294.76 1504.82,294.223 1505.17,294.074C1506.58,293.469 1506.39,293.463 1507.69,292.815C1509.21,292.055 1511.49,291.319 1512.73,290.086C1513.24,289.577 1511.46,290.773 1510.84,291.136C1510.63,291.259 1506.16,294.044 1506.64,294.284C1508.53,295.231 1511.93,292.148 1513.15,291.136C1513.64,290.723 1514.86,290.123 1514.4,289.667C1514.05,289.31 1511.34,294.744 1512.94,295.543C1514.6,296.373 1515.04,292.764 1515.04,291.975C1515.04,291.55 1515.02,290.335 1514.83,290.716C1514.5,291.371 1514.84,295.742 1515.04,295.543C1516.29,294.289 1515.14,289.334 1514.2,288.197C1513.89,287.836 1510.49,287.282 1510.84,286.938C1511.95,285.82 1514.42,285.481 1515.45,286.518C1516.25,287.308 1516.09,289.883 1516.29,290.926C1516.46,291.761 1516.71,293.445 1516.71,293.445C1516.71,293.445 1516.36,291.747 1516.08,290.926C1515.68,289.717 1515.1,286.79 1514.2,285.889C1512.94,284.638 1508.53,286.316 1508.53,287.988" style="fill:white;"/>
        <path d="M1506.74,287.893L1506.17,288.531C1505.05,289.779 1503.89,291.001 1502.72,292.139L1499.04,295.447C1498.47,295.992 1498.31,296.834 1498.62,297.555C1498.93,298.277 1499.67,298.726 1500.45,298.68L1504.72,298.82C1506.56,299.078 1508.5,299.342 1510.37,299.803C1511.53,300.086 1512.64,300.456 1513.68,300.957L1518.12,302.971C1518.88,303.29 1519.76,303.182 1520.43,302.687C1521.1,302.192 1521.45,301.382 1521.37,300.555L1521.17,297.642C1521.16,295.891 1521.17,293.606 1520.89,291.464C1520.67,289.799 1520.27,288.217 1519.63,286.951C1519.15,286.009 1518.09,285.196 1516.7,284.752C1516.32,284.458 1515.88,284.222 1515.4,284.059C1514.22,283.248 1512.12,283.076 1510.2,283.806C1509.03,284.25 1507.85,284.849 1507.34,285.678C1506.86,286.478 1506.54,287.186 1506.74,287.893ZM1516.33,297.157L1516.33,297.158L1516.46,297.213L1516.46,297.034L1516.33,297.157Z" style="fill:white;"/>
    </g>
</svg>
